<svg xmlns="http://www.w3.org/2000/svg" xmlns:xlink="http://www.w3.org/1999/xlink" width="201.125" height="68.088" viewBox="0 0 201.125 68.088">
  <defs>
    <clipPath id="clip-path">
      <rect id="Rectangle_7" data-name="Rectangle 7" width="201.125" height="68.088" fill="none"/>
    </clipPath>
  </defs>
  <g id="Group_2" data-name="Group 2" transform="translate(0 0)">
    <g id="Group_1" data-name="Group 1" transform="translate(0 0)" clip-path="url(#clip-path)">
      <path id="Path_2" data-name="Path 2" d="M156.841,43.131v10.5h-3.762V20.887h11.609c7.57,0,12.957,4.644,12.957,11.145,0,6.455-5.388,11.1-13,11.1Zm0-18.808V39.648h7.291c5.666,0,9.659-3.158,9.613-7.616,0-4.5-3.948-7.709-9.613-7.709Z" transform="translate(-49.248 -6.72)"/>
      <path id="Path_3" data-name="Path 3" d="M196.968,36.729c0-10.263,7.291-17.554,17.6-17.554s17.647,7.291,17.647,17.554-7.338,17.508-17.647,17.508-17.6-7.244-17.6-17.508m3.855,0c0,8.174,5.758,14.025,13.746,14.072,8.034,0,13.746-5.9,13.746-14.072,0-8.219-5.712-14.117-13.746-14.117-7.988,0-13.746,5.9-13.746,14.117" transform="translate(-63.368 -6.169)"/>
      <path id="Path_4" data-name="Path 4" d="M271.336,54.238c-8.034,0-13.793-4.923-13.839-11.749h3.854c0,4.829,4.133,8.313,10.031,8.313,5.387,0,8.684-2.833,8.684-6.781,0-4.365-4.644-5.015-9.706-5.666-6.083-.836-12.353-1.811-12.353-9.1,0-5.805,4.969-10.077,12.353-10.077,7.477,0,12.91,4.644,12.957,11.1h-3.762c0-4.458-3.854-7.663-9.195-7.663-5.109,0-8.451,2.647-8.451,6.316,0,4.365,4.365,5.061,9.52,5.759,5.991.836,12.538,1.811,12.538,8.87,0,6.223-4.922,10.681-12.631,10.681" transform="translate(-82.842 -6.169)"/>
      <path id="Path_5" data-name="Path 5" d="M65.027,37.445A11.791,11.791,0,1,0,76.817,49.236,11.79,11.79,0,0,0,65.027,37.445m0,17.825a5.979,5.979,0,1,1,5.979-5.979,5.979,5.979,0,0,1-5.979,5.979" transform="translate(-17.127 -12.047)" fill="#f58120"/>
      <path id="Path_6" data-name="Path 6" d="M101.539,32.137a11.687,11.687,0,0,0-5.976,1.628V20.959H89.75V43.932a11.964,11.964,0,0,0,.136,1.791,11.793,11.793,0,1,0,11.653-13.586m0,17.832a5.982,5.982,0,1,1,5.982-5.982,5.978,5.978,0,0,1-5.982,5.982" transform="translate(-28.874 -6.743)" fill="#f58120"/>
      <rect id="Rectangle_5" data-name="Rectangle 5" width="5.813" height="21.791" transform="translate(87.042 27.188)" fill="#f58120"/>
      <rect id="Rectangle_6" data-name="Rectangle 6" width="5.813" height="4.093" transform="translate(87.042 21.232)" fill="#f58120"/>
      <path id="Path_7" data-name="Path 7" d="M34.565,46.747V60.991H28.8V48.077c0-2.7-1.458-4.685-3.649-4.776-2.232,0-3.731,1.992-3.731,4.776V60.991H15.648V48.077c0-2.875-1.384-4.776-3.534-4.776C9.923,43.3,8.5,45.2,8.5,48.077V60.991H2.733V41.757H0l2.733-4.419H8.261V38.35h.007v2.044c1.228-2.3,3.385-2.934,5.765-2.934,2.849,0,4.965,1.026,6.084,3.5,1.268-2.479,4.144-3.5,6.878-3.5,4.456,0,7.57,3.849,7.57,9.286" transform="translate(0 -12.012)" fill="#f58120"/>
      <path id="Path_8" data-name="Path 8" d="M94.307,5.887V17.818H88.419V9.408a3.521,3.521,0,0,0-3.52-3.52H13.382a3.517,3.517,0,0,0-3.52,3.52v8.411H3.974V5.887A5.891,5.891,0,0,1,9.861,0H88.419a5.891,5.891,0,0,1,5.888,5.887" transform="translate(-1.279 0)" fill="#707070"/>
      <path id="Path_9" data-name="Path 9" d="M94.024,77.233a9.783,9.783,0,0,1-.583,2.381c0,.014-.007.02-.014.034-2.123,4.789-7.2,6.01-10.507,6.267a.043.043,0,0,1-.041,0c-.19.007-.38.007-.57.007a.411.411,0,0,1-.129,0,9.72,9.72,0,0,1-1.126,0H34.037L22.608,92.935H21.57L22.608,86h-6.5c-11.775.434-12.033-8.77-12.033-8.77H9.795c.427,3.52,5.969,3.229,5.969,3.229H27.457l-.692,5.372,7.359-5.542s33.466-.075,44.78-.02c1.031.007,1.872.014,2.5.02.359.007.705,0,1.031-.014h.041a11.576,11.576,0,0,0,1.75-.142c4.483-.624,4.1-2.9,4.1-2.9Z" transform="translate(-1.312 -24.847)" fill="#707070"/>
    </g>
  </g>
</svg>
